
<global>
amp_veltrack=0
ampeg_release=0.35
</global>

<group>
group_label=Group_0-42
lpc_hicc1=42
lpc_locc1=0

<region>
hikey=B4
hivel=127
lokey=a4
loop_end=126564
loop_mode=loop_continuous
loop_start=42188
loop_xfade=10710
lovel=1
lpc=wWfiQS68csJtXj9CR/nYwf6I00HwoqzB4V5iQT8WdcEfN3xBUPghwaAHgkDsRUXAyd/SQAQtTMD8vwu/jDXhv/cJH0B90YC+dU3Gv7KZ7D9OMka9xIoHP/qlncBaFpBA
lpc_rms=-27.69
offset=6907
pitch_keycenter=A#4
sample=Baritone_shake_PP_A#4.opus
</region>

<region>
hikey=c4
hivel=127
lokey=b3
loop_end=117919
loop_mode=loop_continuous
loop_start=39306
loop_xfade=9979
lovel=1
lpc=AyN6Qv4GBsNpi6RCgPvzwYzsNkLU5AjCThDOQaFqAMINg7pBVdOWwamlTkFzaQrB5OWGQXfGCsGXbyi/HwEpwQ6YDEEDW5Y/MiIRQMreyL1Pb2lAihpHweZgIkAPLGRA
lpc_rms=-25.27
offset=5112
pitch_keycenter=c4
sample=Baritone_shake_PP_C4.opus
</region>

<region>
hikey=d4
hivel=127
lokey=c#4
loop_end=127470
loop_mode=loop_continuous
loop_start=42490
loop_xfade=10787
lovel=1
lpc=o7pmQiMP98JeY59CSx3mwWMe9EHh4jTBv2U0wJ+b5sBiwg1BV/S9wJVi+T/BMVhAFynVP3krmD1zCeHAtuxOwOvVBUE7Jri/iQMYQLJb7z5pInvAUteFwFgndEAH/rM/
lpc_rms=-27.30
offset=7306
pitch_keycenter=d4
sample=Baritone_shake_PP_D4.opus
</region>

<region>
hikey=e4
hivel=127
lokey=d#4
loop_end=121644
loop_mode=loop_continuous
loop_start=40548
loop_xfade=10294
lovel=1
lpc=8Ck/QpOT0sJqfZhCFXAHwodv80EsOGPB3o2mQPOlPMHNQTBBb+cwwVIx0kAno7jAXSYpQcbcGcCF5uS/tWuXvhxFwcB9yL9AixhCwML/BkHBEdDA3GqVvX6q1T0DjJY/
lpc_rms=-26.04
offset=252
pitch_keycenter=e4
sample=Baritone_shake_PP_E4.opus
</region>

<region>
hikey=f#4
hivel=127
lokey=f4
loop_end=121384
loop_mode=loop_continuous
loop_start=40461
loop_xfade=10272
lovel=1
lpc=ZHiFQQ4jvsHqSBFBCwnnwJACmUAAZZo/cxuaPi9uIb9DhfQ/W4sPwIvyqz82Rai/ChyuP775Fz93YGC/YWYdv2QqF7+UfvK+15eEPpqo8D4nMuw/C6bHv4GJzT7XefA+
lpc_rms=-30.11
offset=566
pitch_keycenter=f#4
sample=Baritone_shake_PP_F#4.opus
</region>

<region>
hikey=g#4
hivel=127
lokey=g4
loop_end=110639
loop_mode=loop_continuous
loop_start=36879
loop_xfade=9363
lovel=1
lpc=VinaQR+sTsJTZ/BB/f9ZwYvxUkEsIW7APUDoP73QqMD5qP9AwaYLwdPP6z8BBMA/91w5PwvhvT/tN03AG3IDv3Je7T8s444/RG0Wv96BGECZx4rA0+LePwQuGcBj4SlA
lpc_rms=-27.85
offset=661
pitch_keycenter=g#4
sample=Baritone_shake_PP_G#4.opus
</region>

<region>
hikey=a#2
hivel=127
lokey=a2
loop_end=122224
loop_mode=loop_continuous
loop_start=40741
loop_xfade=10343
lovel=1
lpc=FzoUQrTdp8K9RJNCRdlLwiGdHEI3jbrB/YOLQSRhkcGJiJVBkcOFwTYHE0EcugW/NaDfvyS7IUD81n/ANmonQCNgYsADLWhAvBusvw+zEECAL92+7g+Wv8XnE8DLwwtA
lpc_rms=-28.18
offset=8356
pitch_keycenter=a#2
sample=Baritone_shake_PP_A#2.opus
</region>

<region>
hikey=a#3
hivel=127
lokey=a3
loop_end=116283
loop_mode=loop_continuous
loop_start=38761
loop_xfade=9840
lovel=1
lpc=8b4iQtUGs8KDH4BCTer/wTjbBUL2D6rBOSFHQRI9hcExoINBiHdMwWPbkED2bbw/DmYSPzogvz/M/snAo4NQQBMah79wpTRAgorhvl2RzT+w3lbA69gnQBotsMAS83JA
lpc_rms=-31.38
offset=2332
pitch_keycenter=a#3
sample=Baritone_shake_PP_A#3.opus
</region>

<region>
hivel=127
key=c2
loop_end=130100
loop_mode=loop_continuous
loop_start=43366
loop_xfade=11010
lovel=1
lpc=yCnrQTwHWMIT7xdCUI3dwRoMkEEs3eHA/ZaSQHR2qsAbfZBAXS8dwJ+oJEA84VA/2MekP3ec+b88tz1Akgt7wG/pYj5xRai/7sUMQJjMlb9+l9q91TVTP2oHj75azhQ+
lpc_rms=-30.19
offset=5058
sample=Baritone_shake_PP_C2.opus
</region>

<region>
hikey=c3
hivel=127
lokey=b2
loop_end=123936
loop_mode=loop_continuous
loop_start=41312
loop_xfade=10488
lovel=1
lpc=qrc2QvBt08J39bhCjRCCwsbLfkK3hUDCL7/OQYOekcFVpJZBO/eUwa4ZYkGj1tDAC1q8QOEwp7/fdqTAnJ81v7hYY0A9SIK/tx2eP4TbCD1PfCc+UD6vPhJOR8D4Xvw/
lpc_rms=-26.65
offset=4404
pitch_keycenter=c3
sample=Baritone_shake_PP_C3.opus
</region>

<region>
hikey=d2
hivel=127
lokey=c#2
loop_end=133846
loop_mode=loop_continuous
loop_start=51515
loop_xfade=11327
lovel=1
lpc=ijUTQn5ylMLL5VhCPrgKwoGW5UFJn4vBYjIYQfaiFMEy1w9BU0KIwFQQVkBIKL2/QKayQDFaxsB0oTlAo6tDwHZXnz6CMAfAZuGKQMD3bcC3NnFA+cadv7tMVL/U8sE+
lpc_rms=-26.76
offset=7787
pitch_keycenter=d2
sample=Baritone_shake_PP_D2.opus
</region>

<region>
hikey=d3
hivel=127
lokey=c#3
loop_end=128634
loop_mode=loop_continuous
loop_start=42878
loop_xfade=10885
lovel=1
lpc=4RU0QryWzcJVNJ5Cuq4Rwj7o6UHKV1LBCWtBwHP96r91HwJBpYwGwd3kwkDE+u6/M71RP7b8l76/+cI/1gHlwA4T5kDZykDA+ahyQFJ61z5sobLAvUK1vionS0DPG5m+
lpc_rms=-28.73
offset=4173
pitch_keycenter=d3
sample=Baritone_shake_PP_D3.opus
</region>

<region>
hikey=e2
hivel=127
lokey=d#2
loop_end=128461
loop_mode=loop_continuous
loop_start=56842
loop_xfade=10871
lovel=1
lpc=adJMQtWe8cJ9MNlCz7lvwi1rDUJTX6nBtlOgQE/vqMCc50JBr3U5watSMEHiIIDAodCcQP8OksDLAyHAhOSBPxR4rkDNUD/BLMR5QffQQ8Gt3DpAQugRQE6rJL/T5em+
lpc_rms=-29.15
offset=5454
pitch_keycenter=e2
sample=Baritone_shake_PP_E2.opus
</region>

<region>
hikey=e3
hivel=127
lokey=d#3
loop_end=116251
loop_mode=loop_continuous
loop_start=38750
loop_xfade=9838
lovel=1
lpc=uCgBQtQbX8KqprpB1QhDwaQIS0GH+41Av/lfPvABlcAC5sA+2Et6wIPHl0BtHwbAcV31P+QXcL5wJLA+4Vurv2gjLsA3aYa/23eMQDVJS0DtJo/AiPMFQM2Vc8DlaCJA
lpc_rms=-31.22
offset=421
pitch_keycenter=e3
sample=Baritone_shake_PP_E3.opus
</region>

<region>
hikey=f#2
hivel=127
lokey=f2
loop_end=129763
loop_mode=loop_continuous
loop_start=43254
loop_xfade=10981
lovel=1
lpc=gtJKQv4o18LeSqhCmhlTwjS7B0LfHwfB+cL0vle7pcDq+hZB+yjPwDffsUA2Z9c/Qh3iv6EM6z7nv7fAACxcP+wnGT+BBCu/qQyjP9fstj9kGAPAEOZ5QNFdjL83Y7q/
lpc_rms=-27.45
offset=5622
pitch_keycenter=f#2
sample=Baritone_shake_PP_F#2.opus
</region>

<region>
hikey=f#3
hivel=127
lokey=f3
loop_end=125160
loop_mode=loop_continuous
loop_start=41720
loop_xfade=10591
lovel=1
lpc=BxExQhujvsIgao5CaTchwmUb8EFKjNjAGYQsvgqE08B48oNACShNwFd5fUAvVQK/6XVuP7rFkr+M6OQ/p0WxwLcyyEBt/8DAOXKZQHX1E0CfAofAa2nZPeUPc7/nnr8/
lpc_rms=-29.11
offset=4111
pitch_keycenter=f#3
sample=Baritone_shake_PP_F#3.opus
</region>

<region>
hikey=g#2
hivel=127
lokey=g2
loop_end=118101
loop_mode=loop_continuous
loop_start=39367
loop_xfade=9994
lovel=1
lpc=aD0+Qmx808Ic9alCNBhRwrspJUJx15TBIVOTQOrfB8HpIRFBTdatwGfj5kBD4pC/1ZARv79Slb/eEVa/IjuawPhqu0BmD5fAxcS5QMOqlL6O2vq/kALCPx4hosBCx15A
lpc_rms=-29.83
pitch_keycenter=g#2
sample=Baritone_shake_PP_G#2.opus
</region>

<region>
hikey=g#3
hivel=127
lokey=g3
loop_end=120354
loop_mode=loop_continuous
loop_start=40118
loop_xfade=10185
lovel=1
lpc=0LccQgKZtMLiEZZC03M8wnYrIEKLuJHBDoTWQOMNJ8FEqOFAGeyFwIP7gz+lRnU/psSGQFavC8DTPcq/D2MHwPPx9D+N+FI/IRa4P+Xz6b8tGwhAYTrPwCOlrEBx/IG/
lpc_rms=-30.87
offset=2115
pitch_keycenter=g#3
sample=Baritone_shake_PP_G#3.opus
</region>
</group>

<group>
group_label=Group_43-84
lpc_hicc1=84
lpc_locc1=43

<region>
hikey=B4
hivel=127
lokey=a4
loop_end=131874
loop_mode=loop_continuous
loop_start=43958
loop_xfade=11160
lovel=1
lpc=pigIQTczosHUiblBwbCRwW02R0E6l9bA6Us/QHtijsAPj8dAwg+TwKo4+T/RCTu/voehvjNrCT8X05s+U5eYPnb9bL+WQVc98SxDP0rAM71gkJq+Ig6MPwbJp7/6dDc/
lpc_rms=-18.36
offset=5516
pitch_keycenter=A#4
sample=Baritone_shake_MF_A#4.opus
</region>

<region>
hikey=c4
hivel=127
lokey=b3
loop_end=123099
loop_mode=loop_continuous
loop_start=41033
loop_xfade=10417
lovel=1
lpc=FslFQYxq/sE4eRZCtTf0wX6DnkHkiBHBPkiTQNAC6cBstsJAZ9Pyv2hMuL4KDKc/RaDivr2VXz+kNqPACkMJQRld0cBr9QxAm0FdP9ais79NNti+Mf8TQBrvB8BE40U/
lpc_rms=-16.19
offset=3094
pitch_keycenter=c4
sample=Baritone_shake_MF_C4.opus
</region>

<region>
hikey=d4
hivel=127
lokey=c#4
loop_end=130683
loop_mode=loop_continuous
loop_start=43561
loop_xfade=11059
lovel=1
lpc=Z4iIQfyAJ8JIyC9Ciebhwf7SckFz7BXB86/4QKcoQMHgOYRBq9CBwcV4LUEmSKjAkE8VQCT0WUDwHRHBwpkKQR2MksAF49A/06+Mv3qk5z42bF+/dlSJQNastsAAZzFA
lpc_rms=-17.08
offset=5116
pitch_keycenter=d4
sample=Baritone_shake_MF_D4.opus
</region>

<region>
hikey=e4
hivel=127
lokey=d#4
loop_end=119403
loop_mode=loop_continuous
loop_start=39801
loop_xfade=10104
lovel=1
lpc=l9M0QYhjzcGY3slB7sptwRvNuUAt58y/OmWQQLz7OsExhE9BoPIGwYLiUkD056O+iKMMPvmIsj2VOZS/gVvzP5unIMAQjFJALMpXwM5YKkDoFuu/Tg+uP/0dg7/bM10/
lpc_rms=-19.93
offset=822
pitch_keycenter=e4
sample=Baritone_shake_MF_E4.opus
</region>

<region>
hikey=f#4
hivel=127
lokey=f4
loop_end=130461
loop_mode=loop_continuous
loop_start=43487
loop_xfade=11040
lovel=1
lpc=FxcFQYJFk8E9woRBUsMGwZ5GXUDIBoi/JkW5vp1Ak79BdoJA6MGlwF9/o0CpK4DAC6cMP/eWGUAhowbAwZElPzPaQz+c0BDAdcQNQED4qb9U0Bo/Dti8Pxq6K8Cv5b0/
lpc_rms=-21.62
offset=17682
pitch_keycenter=f#4
sample=Baritone_shake_MF_F#4.opus
</region>

<region>
hikey=g#4
hivel=127
lokey=g4
loop_end=113454
loop_mode=loop_continuous
loop_start=37818
loop_xfade=9601
lovel=1
lpc=3bYgQRgHwcHe5dlBjdadwSw6KUG4EYfA0l8TQApLvcCs1RRB6AQUwanp40DfK5rA/dPpP4wSmz/bbeu/1WC8P5RdH7/trgu/DOp8PkMzwT/avQzA2RsFQL3ap7/5riY/
lpc_rms=-18.49
offset=5190
pitch_keycenter=g#4
sample=Baritone_shake_MF_G#4.opus
</region>

<region>
hikey=a#2
hivel=127
lokey=a2
loop_end=140840
loop_mode=loop_continuous
loop_start=61491
loop_xfade=10625
lovel=1
lpc=dpEoQSPU2MER7wJCy5fbwQmokkE9WxrB/v6mQCy15MA38wtBspTRwElNiEBNqua/TB0ZwOrWnUBoMSXAHGoQvwyX3j8Uc8u/fkyLv4TQdUCLURjArpuru19BtT1AeCI+
lpc_rms=-20.15
offset=8781
pitch_keycenter=a#2
sample=Baritone_shake_MF_A#2.opus
</region>

<region>
hikey=a#3
hivel=127
lokey=a3
loop_end=122122
loop_mode=loop_continuous
loop_start=40707
loop_xfade=10334
lovel=1
lpc=DJj1QLAqlcHW2aVBHQB2wf4TFUEnmrTAeLrMQDlMIsEflyBBmDbJwNOZWUCK9RbAN1fjP1F1zL5X9K2/s6ZYQOASZsAj9+M/cJ2QvyRz+D/nJ/6/qgyvP6RUg79k2+8+
lpc_rms=-20.77
offset=4602
pitch_keycenter=a#3
sample=Baritone_shake_MF_A#3.opus
</region>

<region>
hivel=127
key=c2
loop_end=123978
loop_mode=loop_continuous
loop_start=41326
loop_xfade=10491
lovel=1
lpc=fC93QZ5iIMLAa0hCdKM3wmypDULVz7LBW2sVQV3ZqcBcz/xA4CD/wNMtvUBd76PAXA59QFiobT659fy/3gzfP5+8rL9Ajlm/9SsZQPSwqb8j9KK+kNiBPxZCt72AtPu+
lpc_rms=-17.87
offset=5102
sample=Baritone_shake_MF_C2.opus
</region>

<region>
hikey=c3
hivel=127
lokey=b2
loop_end=137079
loop_mode=loop_continuous
loop_start=64456
loop_xfade=10640
lovel=1
lpc=YmFdQayxDsIpsiZCrS/8wSqNikEL5PvAjHC6QBLJKMFyEmVBUuNFwTrpB0HpLIzAoyKlvx0BokBgTTHAeVCTv6dNRkCfYULAPMmZPlazKkBecu6/YpYJPxhLHL8Msoc+
lpc_rms=-18.80
offset=4600
pitch_keycenter=c3
sample=Baritone_shake_MF_C3.opus
</region>

<region>
hikey=d2
hivel=127
lokey=c#2
loop_end=126518
loop_mode=loop_continuous
loop_start=42172
loop_xfade=10706
lovel=1
lpc=yWCCQev2JcKpyz1Cp7sLwiD+p0FY4VHBCiEHQeqyNcGCJItBi+OBwWmJHEElO9zAT4GVQOioO0DNnwTBrzkAQWuf2MCmGc1ASyKqwN0BmEA0gYXA17FLQO2Pcb/OzP2+
lpc_rms=-18.26
offset=3409
pitch_keycenter=d2
sample=Baritone_shake_MF_D2.opus
</region>

<region>
hikey=d3
hivel=127
lokey=c#3
loop_end=144270
loop_mode=loop_continuous
loop_start=59233
loop_xfade=10416
lovel=1
lpc=XuorQYrh28EzdQNCSUfTwQrSe0H5jdDA03VVQNkLz8AhTQBBFGjDwMJZiUDmwkTAqKIDQJ9H/L92sQdAu37Ov7vqBkBP5UDAJiQSQPS+rL8QCQ8/7F2fP2AOBMBP84E/
lpc_rms=-20.08
pitch_keycenter=d3
sample=Baritone_shake_MF_D3.opus
</region>

<region>
hikey=e2
hivel=127
lokey=d#2
loop_end=129732
loop_mode=loop_continuous
loop_start=43244
loop_xfade=10978
lovel=1
lpc=j9CaQbOVSMJKfF9CTIwdwioXzkGgLaHBgTFPQaTEEsG+vkhBnrBNwW5m7kAOu6TAod6rQEI1pz5xRcHApaadQLU3w70VW0vAG21EQFf9yL/5ug6/l1Z2QDF3gcDvEao/
lpc_rms=-20.39
offset=4852
pitch_keycenter=e2
sample=Baritone_shake_MF_E2.opus
</region>

<region>
hikey=e3
hivel=127
lokey=d#3
loop_end=121314
loop_mode=loop_continuous
loop_start=40438
loop_xfade=10266
lovel=1
lpc=d71CQafv7sFWxfNBTw2VwRHPDEHqjjjA2vpIQO+PIMG7+ztBoAG/wKvMrj7AS4BAO53GwIDwmkClKQXAn/iRP4A9tr/G37M/W/wNwMd1G0BI4eK/aNMKQP5RL8DEYMQ/
lpc_rms=-23.58
offset=139
pitch_keycenter=e3
sample=Baritone_shake_MF_E3.opus
</region>

<region>
hikey=f#2
hivel=127
lokey=f2
loop_end=141436
loop_mode=loop_continuous
loop_start=76757
loop_xfade=10500
lovel=1
lpc=iEx+QaSnI8L9az9CKQkTwomKsUFlO1HB8DIcQf1KUsFyLHRB6V0QwRKL8D/ycgE8gm32vxfq5UA6VBnBIEj2QLNEl8C758k/GNKJv88RhEDwK8fA8wfOQHQujsBIz6w/
lpc_rms=-19.71
offset=3854
pitch_keycenter=f#2
sample=Baritone_shake_MF_F#2.opus
</region>

<region>
hikey=f#3
hivel=127
lokey=f3
loop_end=123705
loop_mode=loop_continuous
loop_start=41235
loop_xfade=10468
lovel=1
lpc=xXlmQbk1CsLG6RBCchHCwSuUXUHlMxbB8soSQchlYcEQM2xB2RW/wHMwBsAx/xdALRoQvwzL0z+uzcK/VLHJP2uxW8BavW1ATeBSwAgphkCR6GTAjSX1P8gMQ79VmWs+
lpc_rms=-19.35
offset=5402
pitch_keycenter=f#3
sample=Baritone_shake_MF_F#3.opus
</region>

<region>
hikey=g#2
hivel=127
lokey=g2
loop_end=131934
loop_mode=loop_continuous
loop_start=57842
loop_xfade=10719
lovel=1
lpc=dUMeQTlGxsH6fu5BL+vGwZXTdkFFjvLAek6XQIKD3cCRDw5BNzIHwXfW+kAuWdzAjd+gQJsqbsAncnFAffREwFQ80j9w3RC+24YJwLr3Y0D+zeO/bRKWPqNWmb3auki+
lpc_rms=-19.73
offset=3655
pitch_keycenter=g#2
sample=Baritone_shake_MF_G#2.opus
</region>

<region>
hikey=g#3
hivel=127
lokey=g3
loop_end=132181
loop_mode=loop_continuous
loop_start=60673
loop_xfade=10020
lovel=1
lpc=T/caQXzzvsGC8NFBfjmRwV5UDkF5wS/AEq/PPz3lo8AcfN9AzCa3wAY+jUAeU0bAwGscPxizR0CO5bvA/dPAQGejT8BdC5g+b+09vn8vvT9TsoG/p90PPwB4PL9EQ6g+
lpc_rms=-20.49
offset=3937
pitch_keycenter=g#3
sample=Baritone_shake_MF_G#3.opus
</region>
</group>

<group>
group_label=Group_85-127
lpc_hicc1=127
lpc_locc1=85

<region>
hikey=a#2
hivel=127
lokey=a2
loop_end=118592
loop_mode=loop_continuous
loop_start=39530
loop_xfade=10036
lovel=1
lpc=HYT4QJtsjcEB65tBINiBwerRKUHs+7nApWSbQMig5MCmqwBBXFTQwBzWqECOC3fAXPX4PwOHrr/XBd8/5we6v+P9iT5BB5Y/WJcXwDBdTEDHCBLAPvuuP8DPaL8+hCE+
lpc_rms=-17.45
offset=3132
pitch_keycenter=a#2
sample=Baritone_shake_FF_A#2.opus
</region>

<region>
hikey=a#3
hivel=127
lokey=a3
loop_end=128405
loop_mode=loop_continuous
loop_start=42801
loop_xfade=10866
lovel=1
lpc=4yjgQBegiMEntJ1ByTB0wYZ+EEHQ46jA3++eQIYlvcAd6IhAcCpnvzoaKb/DlaE+vgOYvVsPaz8BCvO/H3ijPyK8cD+/mCfAI1gRQI8+W7/52x2+fpZ5P98kcr8Owoo+
lpc_rms=-19.78
offset=3273
pitch_keycenter=a#3
sample=Baritone_shake_FF_A#3.opus
</region>

<region>
hikey=B4
hivel=127
lokey=a4
loop_end=131594
loop_mode=loop_continuous
loop_start=43864
loop_xfade=11136
lovel=1
lpc=aHT6QKHrj8H1I51BRItfwUj6DEF9mazAwlc+QM6sWsAZH1JATGIHv6ra+r+g3ek/x710vxWDxT5Na9w9fsJePwyZ27+b9UA/PZykPoxTOj9jhrq/pJu4P3Y3bb9IVQo/
lpc_rms=-18.27
offset=6208
pitch_keycenter=A#4
sample=Baritone_shake_FF_A#4.opus
</region>

<region>
hivel=127
key=c2
loop_end=138346
loop_mode=loop_continuous
loop_start=45553
loop_xfade=10931
lovel=1
lpc=SC9HQfCN2sF0qcxBR7ecwRYmaEG9DQDBgMKqQESqwMB5h8tAaQSfwN42gkDAmoXAnNoFQI4wsb5pCz0/c75Cv2g04D+BPwnAtxERP1M+tT8xzuy/tsNyP+FuAr5OaxW+
lpc_rms=-13.41
offset=17052
sample=Baritone_shake_FF_C2.opus
</region>

<region>
hikey=c3
hivel=127
lokey=b2
loop_end=113366
loop_mode=loop_continuous
loop_start=53070
loop_xfade=9593
lovel=1
lpc=+oMqQRu+x8FsstVBWO+fwQVxM0HoHqDAzjyAQFVZ1MCkB+hAMsGgwF0Xj0CMdoHATXLSP9g3VL8qL/E/j0ytv//1jb8pR1xADBibwMDnnkCLYNm/4hLXvs9bGb6YzgU+
lpc_rms=-17.16
offset=2270
pitch_keycenter=c3
sample=Baritone_shake_FF_C3.opus
</region>

<region>
hikey=c4
hivel=127
lokey=b3
loop_end=149787
loop_mode=loop_continuous
loop_start=74772
loop_xfade=6266
lovel=1
lpc=LkxPQYHlAsJNwhlCKmf0wbfYnkEpilDBdR8pQdRCOcHdtx9BrMTCwBcsQkCDHJ2/PzP1Pp9wHUD3ccvADDvxQNnlncDI8A9AUCbJv9V6AEBMKCHAQGA3QJqoAMC0+A4/
lpc_rms=-15.21
offset=6118
pitch_keycenter=c4
sample=Baritone_shake_FF_C4.opus
</region>

<region>
hikey=d2
hivel=127
lokey=c#2
loop_end=146755
loop_mode=loop_continuous
loop_start=50601
loop_xfade=10777
lovel=1
lpc=sARBQVFAx8ES9adB5P1rwccaL0FyRanAhEPBP/poTsBtGblAmTxzwHk4BUC9bibAXImOPnBbPEAbwDDAM2uXP2mZQj+bvAPAhGcqQKkN47/AXLk+T5OpPYoOBb8aT8g+
lpc_rms=-15.06
offset=6751
pitch_keycenter=d2
sample=Baritone_shake_FF_D2.opus
</region>

<region>
hikey=d3
hivel=127
lokey=c#3
loop_end=129076
loop_mode=loop_continuous
loop_start=43025
loop_xfade=10923
lovel=1
lpc=mAIVQfWks8H1a71B7WRxwSNh00B6Wi/ANq9rQP0158A+78BA/nEzP3Uei8BURRNADwaSPxPPhcBCJHNAVeQvvX6P0L/rF+K+CcEVQOX+6b9xbpw/d9OBv3LKzj6tk7s9
lpc_rms=-21.94
offset=8281
pitch_keycenter=d3
sample=Baritone_shake_FF_D3.opus
</region>

<region>
hikey=d4
hivel=127
lokey=c#4
loop_end=124460
loop_mode=loop_continuous
loop_start=41486
loop_xfade=10532
lovel=1
lpc=oA4MQRA8rsHu38ZBIMCPwe1xC0HeOivABuZJQLReDMFfYipBaUGywPyRO79u3ElA4VgKwDUU2T/29mzABP3EQHwvwsBDul5AVBXCv2sb7D+a1nbABfyzQDY6kMAMGNQ/
lpc_rms=-19.54
offset=5874
pitch_keycenter=d4
sample=Baritone_shake_FF_D4.opus
</region>

<region>
hikey=e2
hivel=127
lokey=d#2
loop_end=129985
loop_mode=loop_continuous
loop_start=43328
loop_xfade=11000
lovel=1
lpc=6qUoQSKhvsGEnMNB/tiZwUvyVEGy///AJCy0QFr97MDwUw9BgYK9wF5SFUDHxtm8BF3jv5fI8z9I3fq9ksHKv3Enyj8qFe++3Gf0vcRjCz8NIxy/cPJbP+VHYL9t6lo+
lpc_rms=-15.88
offset=6251
pitch_keycenter=e2
sample=Baritone_shake_FF_E2.opus
</region>

<region>
hikey=e3
hivel=127
lokey=d#3
loop_end=121433
loop_mode=loop_continuous
loop_start=40477
loop_xfade=10276
lovel=1
lpc=AR0aQVHxr8EGnKFBxTAvwdS0kkAmUu6/cbRDQHqqp8A1lYNAS50TwIv20z/lTm2/NVLTPqFM4D4t+qG/aHVCP2JTsL6RxvQ+uCqVv6zQBEAnPMa/UO68PlNQqr1tFyo+
lpc_rms=-22.95
offset=680
pitch_keycenter=e3
sample=Baritone_shake_FF_E3.opus
</region>

<region>
hikey=e4
hivel=127
lokey=d#4
loop_end=112526
loop_mode=loop_continuous
loop_start=45029
loop_xfade=9522
lovel=1
lpc=D0XuQHYTgsFm+IVBnhJKwcDFD0EmjtDAIvKuQHhjucAC6ppAQxs+wHcOzj/wuJW/KDe7PpSJmD9+X/O/LeXqPy+4uL//TcA/lmkcwOCkS0C++j3Ae7cMQMtaob+flzo/
lpc_rms=-17.50
offset=545
pitch_keycenter=e4
sample=Baritone_shake_FF_E4.opus
</region>

<region>
hikey=f#2
hivel=127
lokey=f2
loop_end=128943
loop_mode=loop_continuous
loop_start=42981
loop_xfade=10912
lovel=1
lpc=vxwtQY6xw8FfetJBhC+wwVRdakHhovXAmxWxQEWq+8C/5g5BGETSwK17h0AiFhfA+MJTvuH0qT8+rIy/cgabP5SSVr8Mnnw/hBsKwJCPgUBp1I7AkQZsQEpOMcDvyYU/
lpc_rms=-16.56
offset=4515
pitch_keycenter=f#2
sample=Baritone_shake_FF_F#2.opus
</region>

<region>
hikey=f#3
hivel=127
lokey=f3
loop_end=122034
loop_mode=loop_continuous
loop_start=40678
loop_xfade=10327
lovel=1
lpc=lQ8XQYi4sMG8YbtBD/J4wWFs10AUVgzAd/XwP+McvsDQgwlBqXu7wDqe1D9Q9oY+wpG4v8YAhECrULDATDSSQL//DMD9H4A9Hue0vt7vP0AVXpvAD0KlQFltY8AiioI/
lpc_rms=-19.81
offset=4986
pitch_keycenter=f#3
sample=Baritone_shake_FF_F#3.opus
</region>

<region>
hikey=f#4
hivel=127
lokey=f4
loop_end=108778
loop_mode=loop_continuous
loop_start=36259
loop_xfade=9205
lovel=1
lpc=5FrlQNQog8GYtIdB9585wb7q70CVLajAB5doQF/aRMBSCqU/GbWrP3sG/b90DAg/HORBP1sujL845dE/u7ekv2+Kbz/F6Ge/APUHv4KV3D9C7AvADzhiQH7zgsA3HwdA
lpc_rms=-16.38
offset=770
pitch_keycenter=f#4
sample=Baritone_shake_FF_F#4.opus
</region>

<region>
hikey=g#2
hivel=127
lokey=g2
loop_end=125067
loop_mode=loop_continuous
loop_start=41689
loop_xfade=10584
lovel=1
lpc=SWYPQaStocFiz6tBKISMwbOZQUFTwuHAuamjQLKL2MCIKu9AKJmtwONxgUChqkzA/szEP6C5Wr8VRuw/+y4gwAcf6T/BU/6+saxBv+wkDUCJKgLAFWXQP0pOnr93nCY+
lpc_rms=-16.61
offset=4818
pitch_keycenter=g#2
sample=Baritone_shake_FF_G#2.opus
</region>

<region>
hikey=g#3
hivel=127
lokey=g3
loop_end=126387
loop_mode=loop_continuous
loop_start=46340
loop_xfade=10695
lovel=1
lpc=HwsMQeI0q8EuI7xBLuZ6wfyRz0CWIcu/SQG0PyHRiMAAZ7VAT8x4wADOAkCbIr+/ItA/P1Xa/j/Jv5bAXDqQQHryy79R4ou/A0O/P0BH7b22zqq/vuw6QPWALsCLhlc/
lpc_rms=-19.73
offset=3983
pitch_keycenter=g#3
sample=Baritone_shake_FF_G#3.opus
</region>

<region>
hikey=g#4
hivel=127
lokey=g4
loop_end=120147
loop_mode=loop_continuous
loop_start=40049
loop_xfade=10167
lovel=1
lpc=cd1LQQ0F6sGhVe9BmguZwYNSNkEYi8XABeH8PzpboMC8eB9Bs0oMweWPnEBMpUPAqovKPtJ+AkD9y8S+vtoMwHNQZkC5+o/AEOEJQEA9+T9p+QnAVPquP1lJob+ZC5g/
lpc_rms=-17.49
offset=5019
pitch_keycenter=g#4
sample=Baritone_shake_FF_G#4.opus
</region>
</group>